M48
; DRILL file {KiCad 9.0.2} date 2025-11-09T02:01:28+0100
; FORMAT={-:-/ absolute / metric / decimal}
; #@! TF.CreationDate,2025-11-09T02:01:28+01:00
; #@! TF.GenerationSoftware,Kicad,Pcbnew,9.0.2
; #@! TF.FileFunction,Plated,1,2,PTH
FMAT,2
METRIC
; #@! TA.AperFunction,Plated,PTH,ViaDrill
T1C0.300
; #@! TA.AperFunction,Plated,PTH,ComponentDrill
T2C0.800
; #@! TA.AperFunction,Plated,PTH,ComponentDrill
T3C0.900
; #@! TA.AperFunction,Plated,PTH,ComponentDrill
T4C1.000
; #@! TA.AperFunction,Plated,PTH,ComponentDrill
T5C1.100
%
G90
G05
T1
X138.088Y-102.311
T2
X126.354Y-90.602
X126.354Y-93.142
X126.354Y-95.682
X126.354Y-98.222
X126.354Y-100.762
X126.354Y-103.302
X126.354Y-105.842
X132.678Y-78.283
X133.582Y-70.282
X133.974Y-90.602
X133.974Y-93.142
X133.974Y-95.682
X133.974Y-98.222
X133.974Y-100.762
X133.974Y-103.302
X133.974Y-105.842
X134.293Y-67.462
X136.082Y-70.282
X137.747Y-88.976
X138.871Y-92.405
X138.871Y-100.025
X139.293Y-67.462
X140.247Y-88.976
X140.298Y-78.283
X141.411Y-92.405
X141.411Y-100.025
X143.951Y-92.405
X143.951Y-100.025
X144.286Y-78.816
X144.286Y-86.436
X144.311Y-68.859
X144.311Y-76.479
X146.491Y-92.405
X146.491Y-100.025
X148.375Y-70.663
X148.375Y-78.283
X149.031Y-92.405
X149.031Y-100.025
X149.696Y-81.229
X149.696Y-88.849
X151.571Y-92.405
X151.571Y-100.025
X151.677Y-70.663
X151.677Y-78.283
X152.236Y-81.229
X152.236Y-88.849
X154.111Y-92.405
X154.111Y-100.025
X154.776Y-81.229
X154.776Y-88.849
X155.005Y-70.688
X155.005Y-78.308
X157.316Y-81.229
X157.316Y-88.849
X158.459Y-70.688
X158.459Y-78.308
X159.856Y-81.229
X159.856Y-88.849
X162.142Y-70.688
X162.142Y-78.308
X162.396Y-81.229
X162.396Y-88.849
X164.936Y-81.229
X164.936Y-88.849
X165.622Y-70.637
X165.622Y-78.257
X167.476Y-81.229
X167.476Y-88.849
X169.28Y-70.688
X169.28Y-78.308
T3
X126.811Y-77.902
X129.351Y-77.902
T4
X151.982Y-60.122
X151.982Y-67.742
X154.522Y-60.122
X154.522Y-67.742
X157.062Y-60.122
X157.062Y-67.742
X159.602Y-60.122
X159.602Y-67.742
X162.142Y-60.122
X162.142Y-67.742
T5
X126.356Y-82.804
X126.356Y-87.304
X132.856Y-82.804
X132.856Y-87.304
X133.468Y-58.928
X133.468Y-63.428
X134.329Y-73.193
X136.869Y-73.193
X139.409Y-73.193
X139.968Y-58.928
X139.968Y-63.428
T4
G00X124.322Y-66.589
M15
G01X124.322Y-68.589
M16
G05
G00X126.322Y-72.289
M15
G01X128.322Y-72.289
M16
G05
G00X130.322Y-66.589
M15
G01X130.322Y-68.589
M16
G05
M30
