%TF.GenerationSoftware,KiCad,Pcbnew,9.0.2*%
%TF.CreationDate,2025-11-09T02:01:15+01:00*%
%TF.ProjectId,digital_dice,64696769-7461-46c5-9f64-6963652e6b69,v1.0*%
%TF.SameCoordinates,Original*%
%TF.FileFunction,Copper,L1,Top*%
%TF.FilePolarity,Positive*%
%FSLAX46Y46*%
G04 Gerber Fmt 4.6, Leading zero omitted, Abs format (unit mm)*
G04 Created by KiCad (PCBNEW 9.0.2) date 2025-11-09 02:01:15*
%MOMM*%
%LPD*%
G01*
G04 APERTURE LIST*
G04 Aperture macros list*
%AMRoundRect*
0 Rectangle with rounded corners*
0 $1 Rounding radius*
0 $2 $3 $4 $5 $6 $7 $8 $9 X,Y pos of 4 corners*
0 Add a 4 corners polygon primitive as box body*
4,1,4,$2,$3,$4,$5,$6,$7,$8,$9,$2,$3,0*
0 Add four circle primitives for the rounded corners*
1,1,$1+$1,$2,$3*
1,1,$1+$1,$4,$5*
1,1,$1+$1,$6,$7*
1,1,$1+$1,$8,$9*
0 Add four rect primitives between the rounded corners*
20,1,$1+$1,$2,$3,$4,$5,0*
20,1,$1+$1,$4,$5,$6,$7,0*
20,1,$1+$1,$6,$7,$8,$9,0*
20,1,$1+$1,$8,$9,$2,$3,0*%
G04 Aperture macros list end*
%TA.AperFunction,ComponentPad*%
%ADD10C,1.600000*%
%TD*%
%TA.AperFunction,ComponentPad*%
%ADD11C,2.000000*%
%TD*%
%TA.AperFunction,ComponentPad*%
%ADD12RoundRect,0.250000X0.550000X-0.550000X0.550000X0.550000X-0.550000X0.550000X-0.550000X-0.550000X0*%
%TD*%
%TA.AperFunction,ComponentPad*%
%ADD13RoundRect,0.250000X-0.550000X-0.550000X0.550000X-0.550000X0.550000X0.550000X-0.550000X0.550000X0*%
%TD*%
%TA.AperFunction,ComponentPad*%
%ADD14R,3.500000X3.500000*%
%TD*%
%TA.AperFunction,ComponentPad*%
%ADD15RoundRect,0.750000X-0.750000X-1.000000X0.750000X-1.000000X0.750000X1.000000X-0.750000X1.000000X0*%
%TD*%
%TA.AperFunction,ComponentPad*%
%ADD16RoundRect,0.875000X-0.875000X-0.875000X0.875000X-0.875000X0.875000X0.875000X-0.875000X0.875000X0*%
%TD*%
%TA.AperFunction,ComponentPad*%
%ADD17RoundRect,0.250000X-0.550000X0.550000X-0.550000X-0.550000X0.550000X-0.550000X0.550000X0.550000X0*%
%TD*%
%TA.AperFunction,ComponentPad*%
%ADD18R,1.800000X1.800000*%
%TD*%
%TA.AperFunction,ComponentPad*%
%ADD19C,1.800000*%
%TD*%
%TA.AperFunction,ComponentPad*%
%ADD20R,1.700000X1.700000*%
%TD*%
%TA.AperFunction,ComponentPad*%
%ADD21C,1.700000*%
%TD*%
%TA.AperFunction,SMDPad,CuDef*%
%ADD22RoundRect,0.150000X-0.825000X-0.150000X0.825000X-0.150000X0.825000X0.150000X-0.825000X0.150000X0*%
%TD*%
%TA.AperFunction,ComponentPad*%
%ADD23R,1.905000X2.000000*%
%TD*%
%TA.AperFunction,ComponentPad*%
%ADD24O,1.905000X2.000000*%
%TD*%
%TA.AperFunction,ViaPad*%
%ADD25C,0.600000*%
%TD*%
%TA.AperFunction,Conductor*%
%ADD26C,0.500000*%
%TD*%
%TA.AperFunction,Conductor*%
%ADD27C,0.150000*%
%TD*%
%TA.AperFunction,Conductor*%
%ADD28C,1.000000*%
%TD*%
%TA.AperFunction,Conductor*%
%ADD29C,0.300000*%
%TD*%
%TA.AperFunction,Conductor*%
%ADD30C,1.500000*%
%TD*%
G04 APERTURE END LIST*
D10*
%TO.P,R3,1*%
%TO.N,Net-(U3-b)*%
X158459109Y-78308200D03*
%TO.P,R3,2*%
%TO.N,Net-(U4-B)*%
X158459109Y-70688200D03*
%TD*%
%TO.P,R2,1*%
%TO.N,Net-(D1-A)*%
X140298109Y-78282800D03*
%TO.P,R2,2*%
%TO.N,Net-(U5-VO)*%
X132678109Y-78282800D03*
%TD*%
%TO.P,C4,1*%
%TO.N,GND*%
X137747309Y-88976200D03*
%TO.P,C4,2*%
%TO.N,Net-(U1-CV)*%
X140247309Y-88976200D03*
%TD*%
D11*
%TO.P,SW2,1,A*%
%TO.N,Net-(SW2-A)*%
X133467909Y-58928000D03*
X139967909Y-58928000D03*
%TO.P,SW2,2,B*%
%TO.N,Net-(SW2-B)*%
X133467909Y-63428000D03*
X139967909Y-63428000D03*
%TD*%
D10*
%TO.P,R4,1*%
%TO.N,Net-(U3-c)*%
X162142109Y-78308200D03*
%TO.P,R4,2*%
%TO.N,Net-(U4-C)*%
X162142109Y-70688200D03*
%TD*%
%TO.P,R10,1*%
%TO.N,Net-(D1-K)*%
X144311309Y-68859400D03*
%TO.P,R10,2*%
%TO.N,Net-(U1-DIS)*%
X144311309Y-76479400D03*
%TD*%
D12*
%TO.P,U3,1,B*%
%TO.N,Net-(U2-Q1)*%
X149696109Y-88849200D03*
D10*
%TO.P,U3,2,C*%
%TO.N,Net-(U2-Q2)*%
X152236109Y-88849200D03*
%TO.P,U3,3,LT*%
%TO.N,Net-(D1-K)*%
X154776109Y-88849200D03*
%TO.P,U3,4,BI*%
X157316109Y-88849200D03*
%TO.P,U3,5,RBI*%
X159856109Y-88849200D03*
%TO.P,U3,6,D*%
%TO.N,Net-(U2-Q3)*%
X162396109Y-88849200D03*
%TO.P,U3,7,A*%
%TO.N,Net-(U2-Q0)*%
X164936109Y-88849200D03*
%TO.P,U3,8,GND*%
%TO.N,GND*%
X167476109Y-88849200D03*
%TO.P,U3,9,e*%
%TO.N,Net-(U3-e)*%
X167476109Y-81229200D03*
%TO.P,U3,10,d*%
%TO.N,Net-(U3-d)*%
X164936109Y-81229200D03*
%TO.P,U3,11,c*%
%TO.N,Net-(U3-c)*%
X162396109Y-81229200D03*
%TO.P,U3,12,b*%
%TO.N,Net-(U3-b)*%
X159856109Y-81229200D03*
%TO.P,U3,13,a*%
%TO.N,Net-(U3-a)*%
X157316109Y-81229200D03*
%TO.P,U3,14,g*%
%TO.N,Net-(U3-g)*%
X154776109Y-81229200D03*
%TO.P,U3,15,f*%
%TO.N,Net-(U3-f)*%
X152236109Y-81229200D03*
%TO.P,U3,16,VCC*%
%TO.N,Net-(D1-K)*%
X149696109Y-81229200D03*
%TD*%
%TO.P,C5,1*%
%TO.N,GND*%
X134292909Y-67462400D03*
%TO.P,C5,2*%
%TO.N,Net-(SW2-B)*%
X139292909Y-67462400D03*
%TD*%
D13*
%TO.P,U2,1,CP1..3*%
%TO.N,Net-(U1-Q)*%
X126353509Y-90601800D03*
D10*
%TO.P,U2,2,R0(1)*%
%TO.N,Net-(D1-K)*%
X126353509Y-93141800D03*
%TO.P,U2,3,R0(2)*%
X126353509Y-95681800D03*
%TO.P,U2,4*%
%TO.N,N/C*%
X126353509Y-98221800D03*
%TO.P,U2,5,VCC*%
%TO.N,Net-(D1-K)*%
X126353509Y-100761800D03*
%TO.P,U2,6,R9(1)*%
%TO.N,Net-(U2-R9(1))*%
X126353509Y-103301800D03*
%TO.P,U2,7,R9(2)*%
X126353509Y-105841800D03*
%TO.P,U2,8,Q2*%
%TO.N,Net-(U2-Q2)*%
X133973509Y-105841800D03*
%TO.P,U2,9,Q1*%
%TO.N,Net-(U2-Q1)*%
X133973509Y-103301800D03*
%TO.P,U2,10,GND*%
%TO.N,GND*%
X133973509Y-100761800D03*
%TO.P,U2,11,Q3*%
%TO.N,Net-(U2-Q3)*%
X133973509Y-98221800D03*
%TO.P,U2,12,Q0*%
%TO.N,Net-(U2-Q0)*%
X133973509Y-95681800D03*
%TO.P,U2,13*%
%TO.N,N/C*%
X133973509Y-93141800D03*
%TO.P,U2,14,CP0*%
%TO.N,unconnected-(U2-CP0-Pad14)*%
X133973509Y-90601800D03*
%TD*%
D14*
%TO.P,J1,1*%
%TO.N,GND*%
X130321509Y-67589400D03*
D15*
%TO.P,J1,2*%
%TO.N,Net-(SW2-A)*%
X124321509Y-67589400D03*
D16*
%TO.P,J1,3*%
%TO.N,N/C*%
X127321509Y-72289400D03*
%TD*%
D10*
%TO.P,R6,1*%
%TO.N,Net-(U3-d)*%
X165621909Y-78257400D03*
%TO.P,R6,2*%
%TO.N,Net-(U4-D)*%
X165621909Y-70637400D03*
%TD*%
%TO.P,R5,1*%
%TO.N,Net-(U3-a)*%
X155004709Y-78308200D03*
%TO.P,R5,2*%
%TO.N,Net-(U4-A)*%
X155004709Y-70688200D03*
%TD*%
D17*
%TO.P,U6,1*%
%TO.N,Net-(U2-Q2)*%
X154110709Y-92405200D03*
D10*
%TO.P,U6,2*%
%TO.N,Net-(U2-Q1)*%
X151570709Y-92405200D03*
%TO.P,U6,3*%
%TO.N,N/C*%
X149030709Y-92405200D03*
%TO.P,U6,4*%
X146490709Y-92405200D03*
%TO.P,U6,5*%
X143950709Y-92405200D03*
%TO.P,U6,6*%
X141410709Y-92405200D03*
%TO.P,U6,7,GND*%
%TO.N,GND*%
X138870709Y-92405200D03*
%TO.P,U6,8*%
%TO.N,N/C*%
X138870709Y-100025200D03*
%TO.P,U6,9*%
X141410709Y-100025200D03*
%TO.P,U6,10*%
X143950709Y-100025200D03*
%TO.P,U6,11*%
X146490709Y-100025200D03*
%TO.P,U6,12*%
%TO.N,Net-(U2-R9(1))*%
X149030709Y-100025200D03*
%TO.P,U6,13*%
%TO.N,Net-(U2-Q0)*%
X151570709Y-100025200D03*
%TO.P,U6,14,VCC*%
%TO.N,Net-(D1-K)*%
X154110709Y-100025200D03*
%TD*%
D18*
%TO.P,D1,1,K*%
%TO.N,Net-(D1-K)*%
X126810709Y-77901800D03*
D19*
%TO.P,D1,2,A*%
%TO.N,Net-(D1-A)*%
X129350709Y-77901800D03*
%TD*%
D10*
%TO.P,R9,1*%
%TO.N,Net-(U3-g)*%
X151677309Y-78282800D03*
%TO.P,R9,2*%
%TO.N,Net-(U4-G)*%
X151677309Y-70662800D03*
%TD*%
%TO.P,R7,1*%
%TO.N,Net-(U3-e)*%
X169279509Y-78308200D03*
%TO.P,R7,2*%
%TO.N,Net-(U4-E)*%
X169279509Y-70688200D03*
%TD*%
%TO.P,C3,1*%
%TO.N,GND*%
X136081709Y-70281800D03*
%TO.P,C3,2*%
%TO.N,Net-(U5-VO)*%
X133581709Y-70281800D03*
%TD*%
%TO.P,R8,1*%
%TO.N,Net-(U3-f)*%
X148375309Y-78282800D03*
%TO.P,R8,2*%
%TO.N,Net-(U4-F)*%
X148375309Y-70662800D03*
%TD*%
%TO.P,R1,1*%
%TO.N,Net-(U1-DIS)*%
X144285909Y-78816200D03*
%TO.P,R1,2*%
%TO.N,Net-(U1-THR)*%
X144285909Y-86436200D03*
%TD*%
D20*
%TO.P,U4,1,G*%
%TO.N,Net-(U4-G)*%
X151982109Y-67741800D03*
D21*
%TO.P,U4,2,F*%
%TO.N,Net-(U4-F)*%
X154522109Y-67741800D03*
%TO.P,U4,3,CC*%
%TO.N,unconnected-(U4-CC-Pad3)*%
X157062109Y-67741800D03*
%TO.P,U4,4,E*%
%TO.N,Net-(U4-E)*%
X159602109Y-67741800D03*
%TO.P,U4,5,D*%
%TO.N,Net-(U4-D)*%
X162142109Y-67741800D03*
%TO.P,U4,6,DP*%
%TO.N,unconnected-(U4-DP-Pad6)*%
X162142109Y-60121800D03*
%TO.P,U4,7,C*%
%TO.N,Net-(U4-C)*%
X159602109Y-60121800D03*
%TO.P,U4,8,CC*%
%TO.N,unconnected-(U4-CC-Pad8)*%
X157062109Y-60121800D03*
%TO.P,U4,9,B*%
%TO.N,Net-(U4-B)*%
X154522109Y-60121800D03*
%TO.P,U4,10,A*%
%TO.N,Net-(U4-A)*%
X151982109Y-60121800D03*
%TD*%
D22*
%TO.P,U1,1,GND*%
%TO.N,GND*%
X136426109Y-83134200D03*
%TO.P,U1,2,TR*%
%TO.N,Net-(U1-THR)*%
X136426109Y-84404200D03*
%TO.P,U1,3,Q*%
%TO.N,Net-(U1-Q)*%
X136426109Y-85674200D03*
%TO.P,U1,4,R*%
%TO.N,Net-(SW1-B)*%
X136426109Y-86944200D03*
%TO.P,U1,5,CV*%
%TO.N,Net-(U1-CV)*%
X141376109Y-86944200D03*
%TO.P,U1,6,THR*%
%TO.N,Net-(U1-THR)*%
X141376109Y-85674200D03*
%TO.P,U1,7,DIS*%
%TO.N,Net-(U1-DIS)*%
X141376109Y-84404200D03*
%TO.P,U1,8,VCC*%
%TO.N,Net-(D1-K)*%
X141376109Y-83134200D03*
%TD*%
D23*
%TO.P,U5,1,VI*%
%TO.N,Net-(SW2-B)*%
X139409109Y-73192600D03*
D24*
%TO.P,U5,2,GND*%
%TO.N,GND*%
X136869109Y-73192600D03*
%TO.P,U5,3,VO*%
%TO.N,Net-(U5-VO)*%
X134329109Y-73192600D03*
%TD*%
D11*
%TO.P,SW1,1,A*%
%TO.N,Net-(D1-K)*%
X126355909Y-82804000D03*
X132855909Y-82804000D03*
%TO.P,SW1,2,B*%
%TO.N,Net-(SW1-B)*%
X126355909Y-87304000D03*
X132855909Y-87304000D03*
%TD*%
D25*
%TO.N,Net-(U2-Q1)*%
X138088309Y-102311200D03*
%TD*%
D26*
%TO.N,Net-(U5-VO)*%
X132678109Y-78282800D02*
X132678109Y-74843600D01*
X133581709Y-70281800D02*
X133581709Y-72445200D01*
X133581709Y-72445200D02*
X134329109Y-73192600D01*
X132678109Y-74843600D02*
X134329109Y-73192600D01*
D27*
%TO.N,GND*%
X136426109Y-83134200D02*
X137401108Y-83134200D01*
D26*
X146219817Y-90227200D02*
X138998309Y-90227200D01*
X153487109Y-88331018D02*
X152754291Y-87598200D01*
D27*
X136426109Y-83134200D02*
X136737721Y-83134200D01*
D26*
X136869109Y-73192600D02*
X136771909Y-73192600D01*
D27*
X128059815Y-92065800D02*
X127429509Y-92696106D01*
D28*
X138870709Y-92405200D02*
X138870709Y-90099600D01*
D26*
X138998309Y-90227200D02*
X138870709Y-90099600D01*
D27*
X129837825Y-76725800D02*
X130526709Y-77414684D01*
X130526709Y-77414684D02*
X130526709Y-78333924D01*
D26*
X131820109Y-69088000D02*
X130321509Y-67589400D01*
D28*
X138870709Y-90099600D02*
X137747309Y-88976200D01*
D26*
X134292909Y-67462400D02*
X134292909Y-68493000D01*
D27*
X125085433Y-101837800D02*
X123677909Y-100430276D01*
D26*
X137268233Y-83134200D02*
X136426109Y-83134200D01*
X153487109Y-89367382D02*
X153487109Y-88331018D01*
D27*
X134038121Y-92065800D02*
X128059815Y-92065800D01*
D26*
X133962709Y-67792600D02*
X134292909Y-67462400D01*
D27*
X131551585Y-79358800D02*
X133123803Y-79358800D01*
D26*
X148848817Y-87598200D02*
X146219817Y-90227200D01*
X154359963Y-90240236D02*
X153487109Y-89367382D01*
D27*
X123677909Y-78682600D02*
X125634709Y-76725800D01*
X136869109Y-75613494D02*
X136869109Y-73192600D01*
X125634709Y-76725800D02*
X129837825Y-76725800D01*
D26*
X137747309Y-88976200D02*
X138393109Y-88330400D01*
X161145109Y-88331018D02*
X161145109Y-89367382D01*
X161877927Y-87598200D02*
X161145109Y-88331018D01*
X138393109Y-84259076D02*
X137268233Y-83134200D01*
X152754291Y-87598200D02*
X148848817Y-87598200D01*
D27*
X137986709Y-88736800D02*
X137747309Y-88976200D01*
D26*
X136081709Y-72405200D02*
X136869109Y-73192600D01*
X130321509Y-67589400D02*
X134165909Y-67589400D01*
X134165909Y-67589400D02*
X134292909Y-67462400D01*
D27*
X136737721Y-83134200D02*
X139853721Y-86250200D01*
D26*
X167476109Y-88849200D02*
X166225109Y-87598200D01*
D28*
X135853109Y-90870400D02*
X137747309Y-88976200D01*
D26*
X130448509Y-67462400D02*
X130321509Y-67589400D01*
D27*
X127429509Y-92696106D02*
X127429509Y-101207494D01*
X123677909Y-100430276D02*
X123677909Y-78682600D01*
D26*
X160272255Y-90240236D02*
X154359963Y-90240236D01*
X136081709Y-70281800D02*
X136081709Y-72405200D01*
D27*
X127429509Y-101207494D02*
X126799203Y-101837800D01*
D26*
X138393109Y-88330400D02*
X138393109Y-84259076D01*
D27*
X133123803Y-79358800D02*
X136869109Y-75613494D01*
D28*
X135853109Y-98882200D02*
X135853109Y-90870400D01*
D26*
X161145109Y-89367382D02*
X160272255Y-90240236D01*
D27*
X139853721Y-86250200D02*
X134038121Y-92065800D01*
D26*
X166225109Y-87598200D02*
X161877927Y-87598200D01*
D28*
X133973509Y-100761800D02*
X135853109Y-98882200D01*
D27*
X126799203Y-101837800D02*
X125085433Y-101837800D01*
D26*
X134292909Y-68493000D02*
X136081709Y-70281800D01*
D27*
X130526709Y-78333924D02*
X131551585Y-79358800D01*
%TO.N,Net-(U1-CV)*%
X140247309Y-88976200D02*
X141376109Y-87847400D01*
X141376109Y-87847400D02*
X141376109Y-86944200D01*
D26*
%TO.N,Net-(SW2-B)*%
X139967909Y-63428000D02*
X139967909Y-66787400D01*
X139292909Y-73076400D02*
X139409109Y-73192600D01*
X133467909Y-63428000D02*
X139967909Y-63428000D01*
X139967909Y-66787400D02*
X139292909Y-67462400D01*
X139292909Y-67462400D02*
X139292909Y-73076400D01*
X139409109Y-67578600D02*
X139292909Y-67462400D01*
%TO.N,Net-(D1-K)*%
X149696109Y-81229200D02*
X154776109Y-86309200D01*
X144311309Y-68859400D02*
X141676109Y-71494600D01*
D29*
X154110709Y-100025200D02*
X157927869Y-100025200D01*
X168627109Y-88372440D02*
X167251869Y-86997200D01*
X157927869Y-100025200D02*
X168627109Y-89325960D01*
D26*
X126355909Y-82804000D02*
X132855909Y-82804000D01*
X124203909Y-90992200D02*
X126353509Y-93141800D01*
X124397709Y-100406200D02*
X124753309Y-100761800D01*
X124203909Y-84956000D02*
X124203909Y-90992200D01*
D29*
X167251869Y-86997200D02*
X160576739Y-86997200D01*
D26*
X149696109Y-81229200D02*
X146137709Y-81229200D01*
X126353509Y-95681800D02*
X124397709Y-97637600D01*
X141676109Y-82834200D02*
X141376109Y-83134200D01*
D29*
X168627109Y-89325960D02*
X168627109Y-88372440D01*
D26*
X154776109Y-88849200D02*
X159856109Y-88849200D01*
X133855909Y-81804000D02*
X140045909Y-81804000D01*
X154776109Y-86309200D02*
X154776109Y-88849200D01*
X146137709Y-76536618D02*
X144531091Y-74930000D01*
D29*
X160576739Y-86997200D02*
X159856109Y-87717830D01*
D26*
X126353509Y-95681800D02*
X126353509Y-93141800D01*
X141676109Y-71494600D02*
X141676109Y-74930000D01*
D29*
X159856109Y-87717830D02*
X159856109Y-88849200D01*
D26*
X126355909Y-82804000D02*
X126355909Y-78356600D01*
X140045909Y-81804000D02*
X141376109Y-83134200D01*
X141676109Y-74930000D02*
X141676109Y-82834200D01*
X126355909Y-82804000D02*
X124203909Y-84956000D01*
X144531091Y-74930000D02*
X141676109Y-74930000D01*
X126355909Y-78356600D02*
X126810709Y-77901800D01*
X124753309Y-100761800D02*
X126353509Y-100761800D01*
X124397709Y-97637600D02*
X124397709Y-100406200D01*
X146137709Y-81229200D02*
X146137709Y-76536618D01*
X132855909Y-82804000D02*
X133855909Y-81804000D01*
%TO.N,Net-(D1-A)*%
X138621709Y-80035400D02*
X138621709Y-79959200D01*
X138621709Y-79959200D02*
X140298109Y-78282800D01*
X131484309Y-80035400D02*
X138621709Y-80035400D01*
X129350709Y-77901800D02*
X131484309Y-80035400D01*
%TO.N,Net-(SW2-A)*%
X133467909Y-58928000D02*
X139967909Y-58928000D01*
D30*
X124321509Y-61671200D02*
X127064709Y-58928000D01*
X124321509Y-67589400D02*
X124321509Y-61671200D01*
X127064709Y-58928000D02*
X133467909Y-58928000D01*
D29*
%TO.N,Net-(U1-THR)*%
X143523909Y-85674200D02*
X141376109Y-85674200D01*
X144285909Y-86436200D02*
X143523909Y-85674200D01*
D27*
X136114497Y-84404200D02*
X134760909Y-83050612D01*
X134837109Y-82346800D02*
X137224709Y-82346800D01*
X134760909Y-83050612D02*
X134760909Y-82423000D01*
X134760909Y-82423000D02*
X134837109Y-82346800D01*
X140552109Y-85674200D02*
X141376109Y-85674200D01*
X137224709Y-82346800D02*
X140552109Y-85674200D01*
X136426109Y-84404200D02*
X136114497Y-84404200D01*
D26*
%TO.N,Net-(U1-DIS)*%
X144311309Y-76479400D02*
X144311309Y-78790800D01*
X141935209Y-84404200D02*
X141376109Y-84404200D01*
X144285909Y-78816200D02*
X144285909Y-82053500D01*
X144311309Y-78790800D02*
X144285909Y-78816200D01*
X144285909Y-82053500D02*
X141935209Y-84404200D01*
%TO.N,Net-(U4-B)*%
X147124309Y-71180982D02*
X147124309Y-67519600D01*
X147857127Y-71913800D02*
X147124309Y-71180982D01*
X152928309Y-70144618D02*
X152928309Y-71180982D01*
X154030127Y-69042800D02*
X152928309Y-70144618D01*
X147124309Y-67519600D02*
X154522109Y-60121800D01*
X152195491Y-71913800D02*
X147857127Y-71913800D01*
X156813709Y-69042800D02*
X154030127Y-69042800D01*
X158459109Y-70688200D02*
X156813709Y-69042800D01*
X152928309Y-71180982D02*
X152195491Y-71913800D01*
%TO.N,Net-(U3-b)*%
X158459109Y-78308200D02*
X158459109Y-79832200D01*
X158459109Y-79832200D02*
X159856109Y-81229200D01*
%TO.N,Net-(U3-c)*%
X162142109Y-78308200D02*
X162142109Y-80975200D01*
X162142109Y-80975200D02*
X162396109Y-81229200D01*
D29*
%TO.N,Net-(U4-C)*%
X162142109Y-70688200D02*
X160850038Y-70688200D01*
X158401109Y-68239271D02*
X158401109Y-61322800D01*
X160850038Y-70688200D02*
X158401109Y-68239271D01*
X158401109Y-61322800D02*
X159602109Y-60121800D01*
D26*
%TO.N,Net-(U4-A)*%
X155004709Y-70688200D02*
X153078109Y-72614800D01*
X146423309Y-65680600D02*
X151982109Y-60121800D01*
X146423309Y-71471346D02*
X146423309Y-65680600D01*
X147566763Y-72614800D02*
X146423309Y-71471346D01*
X153078109Y-72614800D02*
X147566763Y-72614800D01*
%TO.N,Net-(U3-a)*%
X155004709Y-78917800D02*
X157316109Y-81229200D01*
X155004709Y-78308200D02*
X155004709Y-78917800D01*
%TO.N,Net-(U4-D)*%
X165621909Y-70637400D02*
X165037709Y-70637400D01*
X165037709Y-70637400D02*
X162142109Y-67741800D01*
%TO.N,Net-(U3-d)*%
X165621909Y-78257400D02*
X165621909Y-80543400D01*
X165621909Y-80543400D02*
X164936109Y-81229200D01*
%TO.N,Net-(U3-e)*%
X169279509Y-78308200D02*
X169279509Y-79425800D01*
X169279509Y-79425800D02*
X167476109Y-81229200D01*
%TO.N,Net-(U4-E)*%
X164504309Y-65913000D02*
X169279509Y-70688200D01*
X161430909Y-65913000D02*
X164504309Y-65913000D01*
X159602109Y-67741800D02*
X161430909Y-65913000D01*
%TO.N,Net-(U4-F)*%
X148375309Y-68746600D02*
X148375309Y-70662800D01*
X150681109Y-66440800D02*
X148375309Y-68746600D01*
X154522109Y-67741800D02*
X153221109Y-66440800D01*
X153221109Y-66440800D02*
X150681109Y-66440800D01*
%TO.N,Net-(U3-f)*%
X148375309Y-78282800D02*
X149289709Y-78282800D01*
X149289709Y-78282800D02*
X152236109Y-81229200D01*
%TO.N,Net-(U3-g)*%
X151829709Y-78282800D02*
X154776109Y-81229200D01*
X151677309Y-78282800D02*
X151829709Y-78282800D01*
%TO.N,Net-(U4-G)*%
X151982109Y-70358000D02*
X151677309Y-70662800D01*
X151982109Y-67741800D02*
X151982109Y-70358000D01*
%TO.N,Net-(SW1-B)*%
X132855909Y-87304000D02*
X136066309Y-87304000D01*
X126355909Y-87304000D02*
X132855909Y-87304000D01*
X136066309Y-87304000D02*
X136426109Y-86944200D01*
%TO.N,Net-(U1-Q)*%
X124904909Y-86702976D02*
X125933685Y-85674200D01*
X125933685Y-85674200D02*
X136426109Y-85674200D01*
X126353509Y-90601800D02*
X124904909Y-89153200D01*
X124904909Y-89153200D02*
X124904909Y-86702976D01*
%TO.N,Net-(U2-Q2)*%
X152236109Y-90530600D02*
X154110709Y-92405200D01*
D29*
X154110709Y-92405200D02*
X150181709Y-96334200D01*
X150181709Y-96334200D02*
X150181709Y-100501960D01*
X144841869Y-105841800D02*
X133973509Y-105841800D01*
X150181709Y-100501960D02*
X144841869Y-105841800D01*
D26*
X152236109Y-88849200D02*
X152236109Y-90530600D01*
%TO.N,Net-(U2-R9(1))*%
X144503109Y-104552800D02*
X149030709Y-100025200D01*
X127604509Y-104552800D02*
X144503109Y-104552800D01*
X126353509Y-103301800D02*
X126353509Y-105841800D01*
X126353509Y-103301800D02*
X127604509Y-104552800D01*
%TO.N,Net-(U2-Q1)*%
X149696109Y-90530600D02*
X151570709Y-92405200D01*
D29*
X137097709Y-103301800D02*
X138088309Y-102311200D01*
X133973509Y-103301800D02*
X137097709Y-103301800D01*
D26*
X149696109Y-88849200D02*
X149696109Y-90530600D01*
%TO.N,Net-(U2-Q0)*%
X161495709Y-90100200D02*
X163685109Y-90100200D01*
X163685109Y-90100200D02*
X164936109Y-88849200D01*
X151570709Y-100025200D02*
X161495709Y-90100200D01*
%TD*%
M02*
