%TF.GenerationSoftware,KiCad,Pcbnew,9.0.2*%
%TF.CreationDate,2025-11-09T02:01:15+01:00*%
%TF.ProjectId,digital_dice,64696769-7461-46c5-9f64-6963652e6b69,v1.0*%
%TF.SameCoordinates,Original*%
%TF.FileFunction,Soldermask,Bot*%
%TF.FilePolarity,Negative*%
%FSLAX46Y46*%
G04 Gerber Fmt 4.6, Leading zero omitted, Abs format (unit mm)*
G04 Created by KiCad (PCBNEW 9.0.2) date 2025-11-09 02:01:15*
%MOMM*%
%LPD*%
G01*
G04 APERTURE LIST*
G04 Aperture macros list*
%AMRoundRect*
0 Rectangle with rounded corners*
0 $1 Rounding radius*
0 $2 $3 $4 $5 $6 $7 $8 $9 X,Y pos of 4 corners*
0 Add a 4 corners polygon primitive as box body*
4,1,4,$2,$3,$4,$5,$6,$7,$8,$9,$2,$3,0*
0 Add four circle primitives for the rounded corners*
1,1,$1+$1,$2,$3*
1,1,$1+$1,$4,$5*
1,1,$1+$1,$6,$7*
1,1,$1+$1,$8,$9*
0 Add four rect primitives between the rounded corners*
20,1,$1+$1,$2,$3,$4,$5,0*
20,1,$1+$1,$4,$5,$6,$7,0*
20,1,$1+$1,$6,$7,$8,$9,0*
20,1,$1+$1,$8,$9,$2,$3,0*%
G04 Aperture macros list end*
%ADD10C,1.600000*%
%ADD11C,2.000000*%
%ADD12RoundRect,0.250000X0.550000X-0.550000X0.550000X0.550000X-0.550000X0.550000X-0.550000X-0.550000X0*%
%ADD13RoundRect,0.250000X-0.550000X-0.550000X0.550000X-0.550000X0.550000X0.550000X-0.550000X0.550000X0*%
%ADD14R,3.500000X3.500000*%
%ADD15RoundRect,0.750000X-0.750000X-1.000000X0.750000X-1.000000X0.750000X1.000000X-0.750000X1.000000X0*%
%ADD16RoundRect,0.875000X-0.875000X-0.875000X0.875000X-0.875000X0.875000X0.875000X-0.875000X0.875000X0*%
%ADD17RoundRect,0.250000X-0.550000X0.550000X-0.550000X-0.550000X0.550000X-0.550000X0.550000X0.550000X0*%
%ADD18R,1.800000X1.800000*%
%ADD19C,1.800000*%
%ADD20R,1.700000X1.700000*%
%ADD21C,1.700000*%
%ADD22R,1.905000X2.000000*%
%ADD23O,1.905000X2.000000*%
G04 APERTURE END LIST*
D10*
%TO.C,R3*%
X158459109Y-78308200D03*
X158459109Y-70688200D03*
%TD*%
%TO.C,R2*%
X140298109Y-78282800D03*
X132678109Y-78282800D03*
%TD*%
%TO.C,C4*%
X137747309Y-88976200D03*
X140247309Y-88976200D03*
%TD*%
D11*
%TO.C,SW2*%
X133467909Y-58928000D03*
X139967909Y-58928000D03*
X133467909Y-63428000D03*
X139967909Y-63428000D03*
%TD*%
D10*
%TO.C,R4*%
X162142109Y-78308200D03*
X162142109Y-70688200D03*
%TD*%
%TO.C,R10*%
X144311309Y-68859400D03*
X144311309Y-76479400D03*
%TD*%
D12*
%TO.C,U3*%
X149696109Y-88849200D03*
D10*
X152236109Y-88849200D03*
X154776109Y-88849200D03*
X157316109Y-88849200D03*
X159856109Y-88849200D03*
X162396109Y-88849200D03*
X164936109Y-88849200D03*
X167476109Y-88849200D03*
X167476109Y-81229200D03*
X164936109Y-81229200D03*
X162396109Y-81229200D03*
X159856109Y-81229200D03*
X157316109Y-81229200D03*
X154776109Y-81229200D03*
X152236109Y-81229200D03*
X149696109Y-81229200D03*
%TD*%
%TO.C,C5*%
X134292909Y-67462400D03*
X139292909Y-67462400D03*
%TD*%
D13*
%TO.C,U2*%
X126353509Y-90601800D03*
D10*
X126353509Y-93141800D03*
X126353509Y-95681800D03*
X126353509Y-98221800D03*
X126353509Y-100761800D03*
X126353509Y-103301800D03*
X126353509Y-105841800D03*
X133973509Y-105841800D03*
X133973509Y-103301800D03*
X133973509Y-100761800D03*
X133973509Y-98221800D03*
X133973509Y-95681800D03*
X133973509Y-93141800D03*
X133973509Y-90601800D03*
%TD*%
D14*
%TO.C,J1*%
X130321509Y-67589400D03*
D15*
X124321509Y-67589400D03*
D16*
X127321509Y-72289400D03*
%TD*%
D10*
%TO.C,R6*%
X165621909Y-78257400D03*
X165621909Y-70637400D03*
%TD*%
%TO.C,R5*%
X155004709Y-78308200D03*
X155004709Y-70688200D03*
%TD*%
D17*
%TO.C,U6*%
X154110709Y-92405200D03*
D10*
X151570709Y-92405200D03*
X149030709Y-92405200D03*
X146490709Y-92405200D03*
X143950709Y-92405200D03*
X141410709Y-92405200D03*
X138870709Y-92405200D03*
X138870709Y-100025200D03*
X141410709Y-100025200D03*
X143950709Y-100025200D03*
X146490709Y-100025200D03*
X149030709Y-100025200D03*
X151570709Y-100025200D03*
X154110709Y-100025200D03*
%TD*%
D18*
%TO.C,D1*%
X126810709Y-77901800D03*
D19*
X129350709Y-77901800D03*
%TD*%
D10*
%TO.C,R9*%
X151677309Y-78282800D03*
X151677309Y-70662800D03*
%TD*%
%TO.C,R7*%
X169279509Y-78308200D03*
X169279509Y-70688200D03*
%TD*%
%TO.C,C3*%
X136081709Y-70281800D03*
X133581709Y-70281800D03*
%TD*%
%TO.C,R8*%
X148375309Y-78282800D03*
X148375309Y-70662800D03*
%TD*%
%TO.C,R1*%
X144285909Y-78816200D03*
X144285909Y-86436200D03*
%TD*%
D20*
%TO.C,U4*%
X151982109Y-67741800D03*
D21*
X154522109Y-67741800D03*
X157062109Y-67741800D03*
X159602109Y-67741800D03*
X162142109Y-67741800D03*
X162142109Y-60121800D03*
X159602109Y-60121800D03*
X157062109Y-60121800D03*
X154522109Y-60121800D03*
X151982109Y-60121800D03*
%TD*%
D22*
%TO.C,U5*%
X139409109Y-73192600D03*
D23*
X136869109Y-73192600D03*
X134329109Y-73192600D03*
%TD*%
D11*
%TO.C,SW1*%
X126355909Y-82804000D03*
X132855909Y-82804000D03*
X126355909Y-87304000D03*
X132855909Y-87304000D03*
%TD*%
M02*
